<?xml version="1.0" encoding="UTF-8"?>
<!DOCTYPE svg PUBLIC "-//W3C//DTD SVG 1.1//EN" "http://www.w3.org/Graphics/SVG/1.1/DTD/svg11.dtd">
<!-- Creator: CorelDRAW 2018 (64-Bit Evaluation Version) -->
<svg xmlns="http://www.w3.org/2000/svg" xml:space="preserve" width="3.77013in" height="3.20513in" version="1.1" style="shape-rendering:geometricPrecision; text-rendering:geometricPrecision; image-rendering:optimizeQuality; fill-rule:evenodd; clip-rule:evenodd"
viewBox="0 0 3770.13 3205.13"
 xmlns:xlink="http://www.w3.org/1999/xlink">
 <defs>
  <style type="text/css">
   <![CDATA[
    .fil0 {fill:none}
   ]]>
  </style>
   <clipPath id="id0">
    <path d="M1461.55 457.54l48.63 0 0 -274.07c0,-100.91 82.56,-183.46 183.46,-183.46l603.2 0c100.91,0 183.46,82.56 183.46,183.46l0 319.67c0,100.91 -82.56,183.46 -183.46,183.46l-576.57 0 0 41.7 516.87 0c130.69,0 237.61,106.93 237.61,237.61l0 886.57c0,130.69 -106.93,237.61 -237.61,237.61l-63.21 0 0 23.83 80.19 0c115.48,0 209.98,94.49 209.98,209.98l0 671.25c0,115.49 -94.49,209.98 -209.98,209.98l-657.48 0c-115.49,0 -209.98,-94.48 -209.98,-209.98l0 -506.16 -73.39 0 0 335.14c0,67.52 -55.25,122.77 -122.77,122.77l-384.43 0c-67.52,0 -122.77,-55.25 -122.77,-122.77l0 -260.63 -284.27 0c-69.31,0 -126.02,-56.71 -126.02,-126.02l0 -402.87c0,-69.31 56.71,-126.02 126.02,-126.02l367.22 0 0 -71.63 -290.76 0c-74.68,0 -135.77,-61.1 -135.77,-135.77l0 -434.05c0,-74.68 61.09,-135.77 135.77,-135.77l425.14 0c63.53,0 117.22,44.22 131.84,103.39l107.99 0 0 -168.77 -399.71 0c-85.89,0 -156.17,-70.28 -156.17,-156.17l0 -582.7c0,-85.89 70.28,-156.17 156.17,-156.17l564.61 0c85.89,0 156.17,70.28 156.17,156.17l0 130.42zm198.69 225.98c-80.48,-14.96 -142.93,-82.9 -149.48,-165.94l-49.21 0 0 210.72 198.69 0 0 -44.78zm1091.05 -655.72l781.23 0c130.69,0 237.61,106.93 237.61,237.61l0 886.57c0,130.69 -106.93,237.61 -237.61,237.61l-521.31 0 0 133.72 521.31 0c130.69,0 237.61,106.93 237.61,237.61l0 886.57c0,130.69 -106.93,237.61 -237.61,237.61l-781.23 0c-130.68,0 -237.61,-106.92 -237.61,-237.61l0 -886.57c0,-130.69 106.93,-237.61 237.61,-237.61l199.87 0 0 -133.72 -199.87 0c-130.68,0 -237.61,-106.92 -237.61,-237.61l0 -886.57c0,-130.69 106.93,-237.61 237.61,-237.61zm-637.39 2062.3l-487.02 0 0 23.83 487.02 0 0 -23.83zm-547.06 0l-188.75 0c-130.68,0 -237.61,-106.92 -237.61,-237.61l0 -160.73 -104.06 0 0 9.43c0,74.67 -61.1,135.77 -135.78,135.77l-74.34 0 0 75.96c53.61,14.48 93.36,63.67 93.36,121.69l0 274.27 270.85 0c66.62,0 121.28,53.78 122.73,120.07l73.43 0 0 -105.04c0,-105.37 78.66,-193.24 180.16,-207.83l0 -25.97zm-426.36 -458.38l0 -336.91 -104.06 0 0 336.91 104.06 0zm-1012.89 -1545.32l318.56 0c55.96,0 101.74,45.78 101.74,101.74l0 325.24c0,55.96 -45.78,101.74 -101.74,101.74l-318.56 0c-55.96,0 -101.74,-45.78 -101.74,-101.74l0 -325.24c0,-55.96 45.78,-101.74 101.74,-101.74zm69 775.55l145.55 0c25.57,0 46.48,20.91 46.48,46.48l0 148.59c0,25.57 -20.91,46.48 -46.48,46.48l-145.55 0c-25.57,0 -46.48,-20.91 -46.48,-46.48l0 -148.59c0,-25.57 20.91,-46.48 46.48,-46.48zm-150.11 270.19l145.55 0c25.57,0 46.48,20.91 46.48,46.48l0 148.59c0,25.57 -20.91,46.48 -46.48,46.48l-145.55 0c-25.57,0 -46.48,-20.91 -46.48,-46.48l0 -148.59c0,-25.57 20.91,-46.48 46.48,-46.48zm405.23 1456.04l138.01 0c24.24,0 44.07,19.83 44.07,44.07l0 140.9c0,24.24 -19.83,44.07 -44.07,44.07l-138.01 0c-24.24,0 -44.07,-19.83 -44.07,-44.07l0 -140.9c0,-24.24 19.83,-44.07 44.07,-44.07zm-150.11 273.53l138.01 0c24.24,0 44.07,19.83 44.07,44.07l0 140.9c0,24.24 -19.83,44.07 -44.07,44.07l-138.01 0c-24.24,0 -44.07,-19.83 -44.07,-44.07l0 -140.9c0,-24.24 19.83,-44.07 44.07,-44.07zm2246.3 34.9l110.95 0c19.49,0 35.43,15.94 35.43,35.43l0 113.27c0,19.49 -15.94,35.43 -35.43,35.43l-110.95 0c-19.49,0 -35.43,-15.94 -35.43,-35.43l0 -113.27c0,-19.49 15.94,-35.43 35.43,-35.43z"/>
   </clipPath>
    <clipPath id="id1">
     <path d="M1461.55 457.54l48.63 0 0 -274.07c0,-100.91 82.56,-183.46 183.46,-183.46l603.2 0c100.91,0 183.46,82.56 183.46,183.46l0 319.67c0,100.91 -82.56,183.46 -183.46,183.46l-576.57 0 0 41.7 516.87 0c130.69,0 237.61,106.93 237.61,237.61l0 886.57c0,130.69 -106.93,237.61 -237.61,237.61l-63.21 0 0 23.83 80.19 0c115.48,0 209.98,94.49 209.98,209.98l0 671.25c0,115.49 -94.49,209.98 -209.98,209.98l-657.48 0c-115.49,0 -209.98,-94.48 -209.98,-209.98l0 -506.16 -73.39 0 0 335.14c0,67.52 -55.25,122.77 -122.77,122.77l-384.43 0c-67.52,0 -122.77,-55.25 -122.77,-122.77l0 -260.63 -284.27 0c-69.31,0 -126.02,-56.71 -126.02,-126.02l0 -402.87c0,-69.31 56.71,-126.02 126.02,-126.02l367.22 0 0 -71.63 -290.76 0c-74.68,0 -135.77,-61.1 -135.77,-135.77l0 -434.05c0,-74.68 61.09,-135.77 135.77,-135.77l425.14 0c63.53,0 117.22,44.22 131.84,103.39l107.99 0 0 -168.77 -399.71 0c-85.89,0 -156.17,-70.28 -156.17,-156.17l0 -582.7c0,-85.89 70.28,-156.17 156.17,-156.17l564.61 0c85.89,0 156.17,70.28 156.17,156.17l0 130.42zm198.69 225.98c-80.48,-14.96 -142.93,-82.9 -149.48,-165.94l-49.21 0 0 210.72 198.69 0 0 -44.78zm1091.05 -655.72l781.23 0c130.69,0 237.61,106.93 237.61,237.61l0 886.57c0,130.69 -106.93,237.61 -237.61,237.61l-521.31 0 0 133.72 521.31 0c130.69,0 237.61,106.93 237.61,237.61l0 886.57c0,130.69 -106.93,237.61 -237.61,237.61l-781.23 0c-130.68,0 -237.61,-106.92 -237.61,-237.61l0 -886.57c0,-130.69 106.93,-237.61 237.61,-237.61l199.87 0 0 -133.72 -199.87 0c-130.68,0 -237.61,-106.92 -237.61,-237.61l0 -886.57c0,-130.69 106.93,-237.61 237.61,-237.61zm-637.39 2062.3l-487.02 0 0 23.83 487.02 0 0 -23.83zm-547.06 0l-188.75 0c-130.68,0 -237.61,-106.92 -237.61,-237.61l0 -160.73 -104.06 0 0 9.43c0,74.67 -61.1,135.77 -135.78,135.77l-74.34 0 0 75.96c53.61,14.48 93.36,63.67 93.36,121.69l0 274.27 270.85 0c66.62,0 121.28,53.78 122.73,120.07l73.43 0 0 -105.04c0,-105.37 78.66,-193.24 180.16,-207.83l0 -25.97zm-426.36 -458.38l0 -336.91 -104.06 0 0 336.91 104.06 0zm-1012.89 -1545.32l318.56 0c55.96,0 101.74,45.78 101.74,101.74l0 325.24c0,55.96 -45.78,101.74 -101.74,101.74l-318.56 0c-55.96,0 -101.74,-45.78 -101.74,-101.74l0 -325.24c0,-55.96 45.78,-101.74 101.74,-101.74zm69 775.55l145.55 0c25.57,0 46.48,20.91 46.48,46.48l0 148.59c0,25.57 -20.91,46.48 -46.48,46.48l-145.55 0c-25.57,0 -46.48,-20.91 -46.48,-46.48l0 -148.59c0,-25.57 20.91,-46.48 46.48,-46.48zm-150.11 270.19l145.55 0c25.57,0 46.48,20.91 46.48,46.48l0 148.59c0,25.57 -20.91,46.48 -46.48,46.48l-145.55 0c-25.57,0 -46.48,-20.91 -46.48,-46.48l0 -148.59c0,-25.57 20.91,-46.48 46.48,-46.48zm405.23 1456.04l138.01 0c24.24,0 44.07,19.83 44.07,44.07l0 140.9c0,24.24 -19.83,44.07 -44.07,44.07l-138.01 0c-24.24,0 -44.07,-19.83 -44.07,-44.07l0 -140.9c0,-24.24 19.83,-44.07 44.07,-44.07zm-150.11 273.53l138.01 0c24.24,0 44.07,19.83 44.07,44.07l0 140.9c0,24.24 -19.83,44.07 -44.07,44.07l-138.01 0c-24.24,0 -44.07,-19.83 -44.07,-44.07l0 -140.9c0,-24.24 19.83,-44.07 44.07,-44.07zm2246.3 34.9l110.95 0c19.49,0 35.43,15.94 35.43,35.43l0 113.27c0,19.49 -15.94,35.43 -35.43,35.43l-110.95 0c-19.49,0 -35.43,-15.94 -35.43,-35.43l0 -113.27c0,-19.49 15.94,-35.43 35.43,-35.43z"/>
    </clipPath>
    <clipPath id="id2">
     <path d="M1461.55 457.54l48.63 0 0 -274.07c0,-100.91 82.56,-183.46 183.46,-183.46l603.2 0c100.91,0 183.46,82.56 183.46,183.46l0 319.67c0,100.91 -82.56,183.46 -183.46,183.46l-576.57 0 0 41.7 516.87 0c130.69,0 237.61,106.93 237.61,237.61l0 886.57c0,130.69 -106.93,237.61 -237.61,237.61l-63.21 0 0 23.83 80.19 0c115.48,0 209.98,94.49 209.98,209.98l0 671.25c0,115.49 -94.49,209.98 -209.98,209.98l-657.48 0c-115.49,0 -209.98,-94.48 -209.98,-209.98l0 -506.16 -73.39 0 0 335.14c0,67.52 -55.25,122.77 -122.77,122.77l-384.43 0c-67.52,0 -122.77,-55.25 -122.77,-122.77l0 -260.63 -284.27 0c-69.31,0 -126.02,-56.71 -126.02,-126.02l0 -402.87c0,-69.31 56.71,-126.02 126.02,-126.02l367.22 0 0 -71.63 -290.76 0c-74.68,0 -135.77,-61.1 -135.77,-135.77l0 -434.05c0,-74.68 61.09,-135.77 135.77,-135.77l425.14 0c63.53,0 117.22,44.22 131.84,103.39l107.99 0 0 -168.77 -399.71 0c-85.89,0 -156.17,-70.28 -156.17,-156.17l0 -582.7c0,-85.89 70.28,-156.17 156.17,-156.17l564.61 0c85.89,0 156.17,70.28 156.17,156.17l0 130.42zm198.69 225.98c-80.48,-14.96 -142.93,-82.9 -149.48,-165.94l-49.21 0 0 210.72 198.69 0 0 -44.78zm1091.05 -655.72l781.23 0c130.69,0 237.61,106.93 237.61,237.61l0 886.57c0,130.69 -106.93,237.61 -237.61,237.61l-521.31 0 0 133.72 521.31 0c130.69,0 237.61,106.93 237.61,237.61l0 886.57c0,130.69 -106.93,237.61 -237.61,237.61l-781.23 0c-130.68,0 -237.61,-106.92 -237.61,-237.61l0 -886.57c0,-130.69 106.93,-237.61 237.61,-237.61l199.87 0 0 -133.72 -199.87 0c-130.68,0 -237.61,-106.92 -237.61,-237.61l0 -886.57c0,-130.69 106.93,-237.61 237.61,-237.61zm-637.39 2062.3l-487.02 0 0 23.83 487.02 0 0 -23.83zm-547.06 0l-188.75 0c-130.68,0 -237.61,-106.92 -237.61,-237.61l0 -160.73 -104.06 0 0 9.43c0,74.67 -61.1,135.77 -135.78,135.77l-74.34 0 0 75.96c53.61,14.48 93.36,63.67 93.36,121.69l0 274.27 270.85 0c66.62,0 121.28,53.78 122.73,120.07l73.43 0 0 -105.04c0,-105.37 78.66,-193.24 180.16,-207.83l0 -25.97zm-426.36 -458.38l0 -336.91 -104.06 0 0 336.91 104.06 0zm-1012.89 -1545.32l318.56 0c55.96,0 101.74,45.78 101.74,101.74l0 325.24c0,55.96 -45.78,101.74 -101.74,101.74l-318.56 0c-55.96,0 -101.74,-45.78 -101.74,-101.74l0 -325.24c0,-55.96 45.78,-101.74 101.74,-101.74zm69 775.55l145.55 0c25.57,0 46.48,20.91 46.48,46.48l0 148.59c0,25.57 -20.91,46.48 -46.48,46.48l-145.55 0c-25.57,0 -46.48,-20.91 -46.48,-46.48l0 -148.59c0,-25.57 20.91,-46.48 46.48,-46.48zm-150.11 270.19l145.55 0c25.57,0 46.48,20.91 46.48,46.48l0 148.59c0,25.57 -20.91,46.48 -46.48,46.48l-145.55 0c-25.57,0 -46.48,-20.91 -46.48,-46.48l0 -148.59c0,-25.57 20.91,-46.48 46.48,-46.48zm405.23 1456.04l138.01 0c24.24,0 44.07,19.83 44.07,44.07l0 140.9c0,24.24 -19.83,44.07 -44.07,44.07l-138.01 0c-24.24,0 -44.07,-19.83 -44.07,-44.07l0 -140.9c0,-24.24 19.83,-44.07 44.07,-44.07zm-150.11 273.53l138.01 0c24.24,0 44.07,19.83 44.07,44.07l0 140.9c0,24.24 -19.83,44.07 -44.07,44.07l-138.01 0c-24.24,0 -44.07,-19.83 -44.07,-44.07l0 -140.9c0,-24.24 19.83,-44.07 44.07,-44.07zm2246.3 34.9l110.95 0c19.49,0 35.43,15.94 35.43,35.43l0 113.27c0,19.49 -15.94,35.43 -35.43,35.43l-110.95 0c-19.49,0 -35.43,-15.94 -35.43,-35.43l0 -113.27c0,-19.49 15.94,-35.43 35.43,-35.43z"/>
    </clipPath>
 </defs>
 <g id="Layer_x0020_1">
  <metadata id="CorelCorpID_0Corel-Layer"/>
  <g>
  </g>
  <g style="clip-path:url(#id0)">
   <g>
   </g>
   <g style="clip-path:url(#id1)">
    <image x="-324.49" y="-129.54" width="5203.7" height="3469.14" xlink:href="pic frame_Images\pic frame_ImgID1.png"/>
   </g>
   <g style="clip-path:url(#id2)">
   </g>
  </g>
  <path class="fil0" d="M1461.55 457.54l48.63 0 0 -274.07c0,-100.91 82.56,-183.46 183.46,-183.46l603.2 0c100.91,0 183.46,82.56 183.46,183.46l0 319.67c0,100.91 -82.56,183.46 -183.46,183.46l-576.57 0 0 41.7 516.87 0c130.69,0 237.61,106.93 237.61,237.61l0 886.57c0,130.69 -106.93,237.61 -237.61,237.61l-63.21 0 0 23.83 80.19 0c115.48,0 209.98,94.49 209.98,209.98l0 671.25c0,115.49 -94.49,209.98 -209.98,209.98l-657.48 0c-115.49,0 -209.98,-94.48 -209.98,-209.98l0 -506.16 -73.39 0 0 335.14c0,67.52 -55.25,122.77 -122.77,122.77l-384.43 0c-67.52,0 -122.77,-55.25 -122.77,-122.77l0 -260.63 -284.27 0c-69.31,0 -126.02,-56.71 -126.02,-126.02l0 -402.87c0,-69.31 56.71,-126.02 126.02,-126.02l367.22 0 0 -71.63 -290.76 0c-74.68,0 -135.77,-61.1 -135.77,-135.77l0 -434.05c0,-74.68 61.09,-135.77 135.77,-135.77l425.14 0c63.53,0 117.22,44.22 131.84,103.39l107.99 0 0 -168.77 -399.71 0c-85.89,0 -156.17,-70.28 -156.17,-156.17l0 -582.7c0,-85.89 70.28,-156.17 156.17,-156.17l564.61 0c85.89,0 156.17,70.28 156.17,156.17l0 130.42zm198.69 225.98c-80.48,-14.96 -142.93,-82.9 -149.48,-165.94l-49.21 0 0 210.72 198.69 0 0 -44.78zm1091.05 -655.72l781.23 0c130.69,0 237.61,106.93 237.61,237.61l0 886.57c0,130.69 -106.93,237.61 -237.61,237.61l-521.31 0 0 133.72 521.31 0c130.69,0 237.61,106.93 237.61,237.61l0 886.57c0,130.69 -106.93,237.61 -237.61,237.61l-781.23 0c-130.68,0 -237.61,-106.92 -237.61,-237.61l0 -886.57c0,-130.69 106.93,-237.61 237.61,-237.61l199.87 0 0 -133.72 -199.87 0c-130.68,0 -237.61,-106.92 -237.61,-237.61l0 -886.57c0,-130.69 106.93,-237.61 237.61,-237.61zm-637.39 2062.3l-487.02 0 0 23.83 487.02 0 0 -23.83zm-547.06 0l-188.75 0c-130.68,0 -237.61,-106.92 -237.61,-237.61l0 -160.73 -104.06 0 0 9.43c0,74.67 -61.1,135.77 -135.78,135.77l-74.34 0 0 75.96c53.61,14.48 93.36,63.67 93.36,121.69l0 274.27 270.85 0c66.62,0 121.28,53.78 122.73,120.07l73.43 0 0 -105.04c0,-105.37 78.66,-193.24 180.16,-207.83l0 -25.97zm-426.36 -458.38l0 -336.91 -104.06 0 0 336.91 104.06 0zm-1012.89 -1545.32l318.56 0c55.96,0 101.74,45.78 101.74,101.74l0 325.24c0,55.96 -45.78,101.74 -101.74,101.74l-318.56 0c-55.96,0 -101.74,-45.78 -101.74,-101.74l0 -325.24c0,-55.96 45.78,-101.74 101.74,-101.74zm69 775.55l145.55 0c25.57,0 46.48,20.91 46.48,46.48l0 148.59c0,25.57 -20.91,46.48 -46.48,46.48l-145.55 0c-25.57,0 -46.48,-20.91 -46.48,-46.48l0 -148.59c0,-25.57 20.91,-46.48 46.48,-46.48zm-150.11 270.19l145.55 0c25.57,0 46.48,20.91 46.48,46.48l0 148.59c0,25.57 -20.91,46.48 -46.48,46.48l-145.55 0c-25.57,0 -46.48,-20.91 -46.48,-46.48l0 -148.59c0,-25.57 20.91,-46.48 46.48,-46.48zm405.23 1456.04l138.01 0c24.24,0 44.07,19.83 44.07,44.07l0 140.9c0,24.24 -19.83,44.07 -44.07,44.07l-138.01 0c-24.24,0 -44.07,-19.83 -44.07,-44.07l0 -140.9c0,-24.24 19.83,-44.07 44.07,-44.07zm-150.11 273.53l138.01 0c24.24,0 44.07,19.83 44.07,44.07l0 140.9c0,24.24 -19.83,44.07 -44.07,44.07l-138.01 0c-24.24,0 -44.07,-19.83 -44.07,-44.07l0 -140.9c0,-24.24 19.83,-44.07 44.07,-44.07zm2246.3 34.9l110.95 0c19.49,0 35.43,15.94 35.43,35.43l0 113.27c0,19.49 -15.94,35.43 -35.43,35.43l-110.95 0c-19.49,0 -35.43,-15.94 -35.43,-35.43l0 -113.27c0,-19.49 15.94,-35.43 35.43,-35.43z"/>
 </g>
</svg>
