<?xml version="1.0" encoding="UTF-8"?>
<!DOCTYPE svg PUBLIC "-//W3C//DTD SVG 1.1//EN" "http://www.w3.org/Graphics/SVG/1.1/DTD/svg11.dtd">
<!-- Creator: CorelDRAW 2018 (64-Bit Evaluation Version) -->
<svg xmlns="http://www.w3.org/2000/svg" xml:space="preserve" width="8.00694in" height="5.28416in" version="1.1" style="shape-rendering:geometricPrecision; text-rendering:geometricPrecision; image-rendering:optimizeQuality; fill-rule:evenodd; clip-rule:evenodd"
viewBox="0 0 8006.94 5284.16"
 xmlns:xlink="http://www.w3.org/1999/xlink">
 <defs>
  <style type="text/css">
   <![CDATA[
    .str0 {stroke:#373435;stroke-width:6.94;stroke-miterlimit:2.61313}
    .fil0 {fill:#130395}
    .fil1 {fill:white}
   ]]>
  </style>
      <clipPath id="id0">
       <rect x="2067.24" y="2756.46" width="836.83" height="450.62"/>
      </clipPath>
     <clipPath id="id1">
      <rect x="6525.2" y="2176.77" width="1087.29" height="267.34"/>
     </clipPath>
     <clipPath id="id2">
      <rect x="4323.83" y="2074.32" width="480.07" height="363.19"/>
     </clipPath>
 </defs>
 <g id="Layer_x0020_1">
  <metadata id="CorelCorpID_0Corel-Layer"/>
  <g id="_1908617662592">
   <rect class="fil0 str0" x="3.47" y="3.47" width="8000" height="5277.21"/>
   <g>
    <g>
     <g>
      <path class="fil1" d="M4206.24 2851.78c0,42.86 26.46,26.92 38.83,28.54 10.13,1.33 6.14,4.3 7.72,9.37 10.85,34.85 3.22,4.19 3.22,31.21 0,14.93 21.89,60.81 45.45,12.27l9.85 -15.22c5.69,-10.55 -0.01,-7.44 -0.01,-19.17 0,-4.82 18.3,-14.04 22.12,-30.41 -11.94,-8 -4.09,-4.04 -19.35,-2.77 -4.47,-16.74 -14.79,-35.54 -32.48,-39.12 -8.22,-1.66 -6.74,0.41 -20.05,0.41 -2.74,-32.97 -55.3,1.95 -55.3,24.88z"/>
      <path class="fil1" d="M4123.29 3064.67c7.94,-2.87 3.59,-0.7 10.56,-8.79l64.09 -85.21c-2.75,-3.75 -15.14,-13.77 -19.35,-16.59l-30.41 41.48 0 -47 52.54 0 0 88.48 24.88 0 0 -113.36 -102.3 0 0 141.01z"/>
      <path class="fil1" d="M3581.37 3064.67c12.59,-8.43 43.92,-53.02 56.88,-70.3 5.72,-7.63 15.55,-18.13 17.77,-26.46 -10.75,-2.87 -10.31,-7.77 -19.35,-13.83 -6.11,9.13 -22.47,33.39 -30.41,38.71l0 -44.24 52.53 0 0 88.48 24.88 0 0 -113.36 -102.3 0 0 141.01z"/>
      <path class="fil1" d="M3772.15 3037.03l24.89 0 0 -55.3 33.18 44.24c8.15,-5.46 12.37,-11.77 18.57,-20.14 4.96,-6.7 11.73,-17.2 17.37,-21.34l0 52.54 27.65 0 0 -124.42c-13.34,3.56 -35.63,39.33 -45.03,51.74 -4.96,6.55 -10.95,12.35 -13.03,20.14 -9.01,-2.41 -3.85,-0.14 -9.66,-6.93 -10.41,-12.17 -41.19,-59.19 -53.94,-67.72l0 127.19z"/>
      <path class="fil1" d="M3230.24 3037.03l24.88 0 0 -55.3 16.97 21.74c4.37,5.86 14,18.85 18.97,22.5 5.32,-7.95 26.7,-37.14 33.18,-41.48l0 52.54 24.89 0 0 -127.19c-14.4,16.56 -52.36,68.98 -60.83,74.65 -8.01,-11.95 -49.34,-68.26 -58.06,-74.65l0 127.19z"/>
      <path class="fil1" d="M3990.57 2948.55l49.77 0 0 82.94c0,2.43 16.7,30.26 27.65,33.18l0 -116.12 16.59 0c5.89,0 29.93,-20.45 33.18,-24.89 -22,0 -91.32,-5.47 -106.82,6.54 -6.27,4.86 -16.77,12.98 -20.37,18.35z"/>
      <path class="fil1" d="M3448.66 2948.55l49.77 0 0 80.18c0,11.06 4.59,13.91 10.3,20.12 5.6,6.09 8.12,11.49 14.59,15.82l0 -116.12c27.19,0 20.57,2.9 52.54,-24.89 -24.88,0 -49.82,0.18 -74.69,-0.04 -17.29,-0.15 -21.98,-2.18 -32.46,6.24l-20.03 18.68z"/>
      <path class="fil1" d="M3844.04 3216.74l15.59 -1.32c18.22,-4.1 7.56,4.09 20.35,4.09 33,0 33,-63.59 0,-63.59 -5.35,0 -9,3.76 -16.59,5.53l0 -35.94 -19.35 0 0 91.24z"/>
      <path class="fil1" d="M3650.5 3172.5c0,25.82 25.31,47 41.47,47 12.8,0 18.34,-4.52 30.41,-5.53l0 -22.12c-7.43,1.73 -18.66,8.3 -24.88,8.3 -31.01,0 -32.91,-47.98 -7.17,-54.28 10.42,-2.55 23.21,5.22 32.06,7.28l0 -22.12c-15.22,-3.55 -9.54,-5.53 -30.41,-5.53 -21.32,0 -41.47,24.83 -41.47,47z"/>
      <path class="fil1" d="M3769.39 3186.33c0,45.69 58.06,39.6 58.06,8.3l0 -35.94 -19.35 0c0,33.22 3.73,37.52 -11.06,41.47 -11.54,-8.45 -8.3,-18.17 -8.3,-41.47l-19.35 0 0 27.65z"/>
      <polygon class="fil1" points="3904.87,3037.03 3985.05,3037.03 3985.05,3012.14 3904.87,3012.14 "/>
      <polygon class="fil1" points="3904.87,2948.55 3985.05,2948.55 3985.05,2923.67 3904.87,2923.67 "/>
      <path class="fil1" d="M3362.95 3037.03l80.18 0 0 -16.59c0,-6.37 -1.92,-8.3 -8.3,-8.3l-71.89 0 0 24.89z"/>
      <path class="fil1" d="M3362.95 2948.55l71.89 0c12.15,0 12.15,-24.89 0,-24.89l-71.89 0 0 24.89z"/>
      <polygon class="fil1" points="3736.21,3216.74 3755.56,3216.74 3755.56,3125.5 3736.21,3125.5 "/>
      <path class="fil1" d="M3904.87 2992.79l41.47 0c7.03,0 32.44,-19.65 35.94,-24.88l-77.42 0 0 24.88z"/>
      <path class="fil1" d="M3362.95 2992.79l41.47 0c5.72,0 14.7,-8.31 18.95,-11.46 6.65,-4.93 12.34,-7.07 17,-13.42l-77.42 0 0 24.88z"/>
      <path class="fil1" d="M3694.74 2992.79c0,13.63 21.8,8.3 58.06,8.3 10.47,0 8.3,-6.45 8.3,-22.12l-66.35 0 0 13.82z"/>
     </g>
     <g style="clip-path:url(#id0)">
      <image x="2067.24" y="2756.46" width="836.83" height="450.62" xlink:href="memoi patnerss_Images\memoi patnerss_ImgID1.png"/>
     </g>
     <g>
      <path class="fil1" d="M4660.14 2920.36c-15.42,9.47 -26.87,49.58 -26.7,74.09 0.38,52.7 35.62,97.23 84.66,111.68 23.37,6.89 69.98,5.48 82.14,-6.88 9.59,-0.68 27.99,-16.3 34.38,-22.42 19.89,-19.09 33.23,-46.82 35.15,-76.39 0.8,-12.4 -1.3,-38.36 -7.24,-46.34 -8.98,-34.82 -46.78,-67.85 -86.73,-76.17 -24.17,-5.04 -50.43,-1.57 -70.83,7.17 -14.63,6.29 -40.67,23.69 -44.83,35.25zm79.42 138.44c-2.62,-2.77 -13.63,-7.85 -23.37,-15.85 -23.58,-19.35 -32.76,-48.85 -28.74,-82.45 9.64,-38.32 38.18,-70.06 85,-70.39 70.01,-0.48 84.14,64.26 87.47,68.2 -1.99,20.61 6.9,55.34 -30.22,85.65 -41.77,34.11 -79.99,14.93 -90.14,14.83z"/>
      <path class="fil1" d="M4840.22 3079.64c-4.39,2.24 -13.56,13.07 -29.38,21.48 -46.98,24.97 -80.68,14.54 -120.25,-0.99 4.18,11.95 24.7,30.36 35.11,37.32 52.38,35.04 118.55,21.03 155.05,-21.39 42.95,-49.31 38.28,-117.62 -13.25,-165.98 0.81,17.05 13.78,30.52 3.19,74.36 -7.95,32.88 -24.04,43.38 -30.46,55.2z"/>
      <path class="fil1" d="M5307.48 3053.27l-18.25 5c6.02,22.99 29.55,43.48 60.11,39.61 23.92,-3.02 45.7,-31.07 34.06,-59.86 -14.96,-36.97 -67.86,-33.29 -66.56,-59 0.34,-6.72 6.48,-12.35 11.93,-14.54 5.61,-2.25 16.43,-2.73 23.15,-0.54 3.07,1.02 5.3,2.77 7.7,4.7 0.91,0.73 2.32,1.97 3.43,2.81 4.33,3.3 0.8,1.25 4.92,3.22 3.63,-2.23 10.28,-7.85 13.8,-11.26 -6.19,-18.85 -46.37,-27.83 -67.99,-13.9 -25.02,16.11 -21.48,46.66 1.82,63.19 8.78,6.23 21.63,10.58 31.96,16.11 45.27,24.23 0.39,69.45 -29.62,38.96 -4,-4.06 -6.26,-10.19 -10.46,-14.51zm498.69 39.67l18.91 0.35 46.7 -105.26c1.52,1.44 0.9,0.63 2.37,2.75l46.15 102.46 19.39 0.05 -66.14 -149.79c-5.45,2.93 -32.16,68.39 -34.52,73.78l-32.86 75.65zm-269.21 0.09l19.82 0.29 46.39 -105.3c4.97,3.98 43.12,94.19 48.82,105.23l19.35 0.04c-8.5,-23.42 -22.2,-50.97 -32.89,-74.65 -5.11,-11.31 -29.78,-70.58 -34.76,-75.2l-66.74 149.59zm200.11 3.37l66.39 -149.13 -19.8 -0.68c-7.67,13.38 -15.83,35.36 -22.91,51.34 -2.32,5.26 -19.46,47.38 -23.69,51.19l-45.28 -102.31 -19.35 -0.16c0.7,5.66 61.89,146.26 64.63,149.74zm-606.14 -3.19l18.36 0.15c5.52,-7.38 18.75,-40.92 23.65,-52.04l23.74 -52.28c0.13,-0.17 0.44,-0.57 0.7,-0.82l47.48 105.17 19.03 -0.02c-0.31,-2.46 -51.89,-122.66 -63.07,-144.24l-1.19 -2.09c-1.13,-1.83 -1.35,-2.02 -2.25,-3.06 -3.66,3.35 -65.67,143.38 -66.44,149.22zm-22.92 -4.76l0.12 -21.96c-11.81,2.85 -17.66,8.94 -33.21,10.62 -71.32,7.7 -93.98,-79.86 -37.97,-108.17 27.95,-14.13 46.33,-3.03 71.01,4.3 0.24,-22.96 4.14,-22.35 -18.36,-27.8 -7.24,-1.76 -14.52,-3.13 -22.48,-3.28 -82.63,-1.42 -112.77,101.87 -43.98,144.35 11.04,6.81 25.02,11.49 40.83,11.8 20.7,0.42 28.41,-4.59 44.05,-9.86zm328.13 -35.07l-18.93 4.58c4.24,23.14 30.71,44.71 60.69,39.75 23.74,-3.93 45.16,-31.89 32.37,-61.09 -12.16,-27.73 -35.38,-26.2 -57.99,-42.76 -19.11,-13.99 -0.75,-38.5 26.82,-29.93 8.47,2.64 9.46,7.41 16.03,10.84 5.37,-3.45 11.43,-6.9 14.12,-12.91 -12.33,-16.65 -46.64,-28.61 -69.06,-11.58 -22.85,17.36 -20.21,46.34 2.71,62.28 17.79,12.37 55.93,18 50.55,46.82 -3.88,20.77 -41.85,30.11 -57.31,-6z"/>
     </g>
    </g>
    <g>
     <path class="fil1" d="M394.44 2258.71l0 82.57c0,9.14 25.94,20.51 37.38,27.28 5.05,2.99 39.53,23.45 42.2,23.45 7.06,0 20.84,-9.21 26.92,-12.88l50.48 -29.09c13.11,-7.88 34.19,-14.72 16.46,-24.04 -3.3,-1.74 -6.37,-3.54 -9.5,-5.42l-46.15 -26.48c-17.82,-10.27 -0.35,-13.81 28.63,-31.22 6.43,-3.87 12.34,-7.11 19.02,-10.83 3.48,-1.93 5.85,-3.65 9.33,-5.59l66.39 -38.07c6.85,-4.05 13.5,-5.85 13.5,-16.34l0 -73.62c0,-4.69 -1.76,-6.62 -4.36,-6.97l-1.87 0c-5.77,0.63 -13.94,6.45 -17.22,8.39l-78.32 45.03c-10.87,6.07 -20.86,12.43 -31.53,18.21 -10.39,5.63 -20.75,12.06 -30.89,17.86 -10.67,6.11 -20.98,11.79 -31.59,18.15 -5.13,3.08 -10.23,5.87 -15.17,8.7l-31.59 18.15c-4.78,2.86 -12.13,5.63 -12.13,12.74z"/>
     <path class="fil1" d="M548.63 2287.56c0,5.44 8.5,8.17 16.11,12.74l46.15 26.47c16.12,9.3 3.63,12.26 -9.72,20.28l-113.64 65.43c-6.85,4.05 -13.5,5.85 -13.5,16.34l0 73.62c0,6.43 3.63,6.93 6.72,6.96l0.85 0 0.39 -0 234.58 -134.48c4.77,-2.86 12.13,-5.63 12.13,-12.74l0 -82.57c0,-9.26 -26.5,-20.76 -38,-27.65 -50.82,-30.48 -38.5,-26.96 -69.13,-9.84 -8.76,4.89 -16.84,9.74 -25.22,14.57l-37.33 21.36c-3.91,2.31 -10.37,4.43 -10.37,9.53z"/>
     <path class="fil1" d="M788.38 2254.73c0,12.96 2.37,20.9 10.19,28.61 16.09,15.86 29.22,15.65 49.63,22.99 11.64,4.19 18.78,7.53 18.78,19.03 0,16.39 -39.35,21.28 -53.89,0.17 -2,-2.91 -3.2,-6.08 -4.81,-9.12l-25.87 14.93c0.42,5.03 5.52,12.54 7.94,15.93 18.08,25.27 65.63,30.08 90.15,11.53 22.07,-16.69 25.57,-53.63 -2.99,-70.84 -4.03,-2.43 -7.66,-3.89 -12.24,-5.67 -17.79,-6.95 -46.06,-10.8 -46.06,-26.56 0,-22.49 42.44,-18.8 47.76,3.98 3.9,-0.33 24.13,-12.56 25.86,-14.92 -3.4,-14.57 -27.08,-33.83 -48.74,-33.83l-9.95 0c-23.8,0 -45.76,19.51 -45.76,43.77z"/>
     <path class="fil1" d="M933.62 2314.42l0 -4.97c0,-34.29 58.69,-41.83 58.69,4.97 0,36.81 -58.69,37.01 -58.69,0zm0 -45.76c0,-14.69 5.05,-11.93 -28.85,-11.93l0 153.2 28.85 0 0 -54.72c18.59,21.4 51.98,18.61 71.4,-1.22 33.47,-34.17 12.8,-100.25 -37.58,-100.25 -20.57,0 -27.32,10.57 -33.82,14.92z"/>
     <path class="fil1" d="M1029.12 2364.16c0,2.3 0.69,2.98 2.99,2.98 32.81,0 26.86,5.65 26.86,-23.88 0,-11.09 -1.72,-43.2 2.61,-51.1 7.83,-14.29 33.48,-15.22 39.81,0.71 2.63,6.61 1.45,51.61 1.34,63.33 -0.13,13.56 -4.52,10.93 28.85,10.93l0 -73.61c0,-14.76 -10.5,-30.63 -23.69,-36 -17.3,-7.04 -36.7,-3.94 -48.93,10.13l0 -53.72 -29.85 0 0 150.21z"/>
     <path class="fil1" d="M1193.26 2280.59c22.13,0 23.09,6.82 29.85,20.89l-54.72 0c2.62,-11.24 11.12,-20.89 24.87,-20.89zm-54.71 29.85c0,19.65 6.06,32.67 17.14,43.54 17.57,17.25 47.41,21.13 71.41,9.19 6.17,-3.07 17.24,-10.85 18.89,-17.92 -5.88,-1.57 -15.84,-10.3 -22.88,-11.94 -11.1,7.43 -9.18,9.94 -27.85,9.94 -13.07,0 -23.4,-8.31 -25.87,-18.9l70.64 0.01c7.58,0.07 8.63,1.13 10.44,-1.5 3.64,-5.27 3.81,-47.75 -30.65,-63.87 -14.08,-6.58 -32.32,-6.78 -46.76,-0.61 -20.94,8.95 -34.51,29.03 -34.51,52.04z"/>
     <path class="fil1" d="M1351.44 2312.43c0,-40.87 57.7,-37.91 57.7,-2.98l0 4.97c0,14.66 -12.2,26.86 -26.86,26.86 -9.37,0 -16.47,-1.18 -23.15,-8.69 -4,-4.5 -7.69,-12.01 -7.69,-20.16zm-28.85 -2.98c0,12.07 0.85,16.59 5.37,27.45 3,7.2 7.25,11.51 12.29,16.57 16.84,16.92 41.04,20.83 63.8,11.57 5.17,-2.1 13.28,-7.67 17.31,-11.54 16.61,-15.95 21.74,-42.23 12.39,-64.69 -15.43,-37.03 -65.39,-46.82 -93.5,-18.43 -10.18,10.29 -17.65,23.04 -17.65,39.06z"/>
     <path class="fil1" d="M1475.79 2267.67c0,-13.42 4.61,-10.94 -26.86,-10.94 -2.3,0 -2.99,0.69 -2.99,2.98l0 104.45c0,2.3 0.69,2.98 2.99,2.98 32.81,0 26.86,5.65 26.86,-23.88 0,-8.95 0,-17.9 0,-26.86 0,-9.91 -0.77,-17.16 2.67,-24.19 6.33,-12.91 25.76,-13.22 34.33,-6.84 9.22,6.86 6.77,20.86 6.77,32.02l-0 38.81c-0.13,13.56 -4.52,10.93 28.85,10.93l0 -73.61c0,-10.89 -6.46,-22.13 -11.8,-28 -12.81,-14.11 -43.73,-17.54 -60.82,2.14z"/>
     <path class="fil1" d="M1288.77 2272.64c0,-20.04 5.67,-15.92 -28.85,-15.92l0 110.42c35.34,0 28.85,6.02 28.85,-26.86 0,-20.63 -6.36,-53.52 28.81,-53.46 2.43,0 4.01,1.56 4.01,-2.25l0 -29.84c-10.47,0 -20.54,3.78 -27.14,10.66l-3.92 5.04c-0.92,1.26 -0.95,1.28 -1.76,2.22z"/>
    </g>
    <g style="clip-path:url(#id1)">
     <image x="6525.2" y="2176.78" width="1087.29" height="267.33" xlink:href="memoi patnerss_Images\memoi patnerss_ImgID2.png"/>
    </g>
    <g>
     <path class="fil1" d="M3923.64 2376.51l0 -6.63c0,-28.43 33.98,-43.16 54.54,-23.4 13.04,12.52 13.3,40.72 0.65,53.41 -9.84,9.87 -24.96,12.88 -37.27,6.43 -9.55,-5.01 -17.93,-16.98 -17.93,-29.81zm28.88 61l-7.85 0c-26.75,-1.95 -53.51,-23.8 -53.51,-62.33l0 -3.98c0,-19.07 8.49,-39.97 23.85,-51.07 15.14,-10.94 39.42,-14.63 56.74,-5.02 3.17,1.76 6.08,3.65 8.74,5.84 1.48,1.22 2.68,1.91 3.98,3.31 1.41,1.52 1.79,2.72 3.46,3.83 0,-3.09 0.02,-6.2 -0.01,-9.29 -0.09,-9.59 -4.2,-7.29 30.5,-7.29 1.53,0 1.99,0.46 1.99,1.99l0 120.02c0,1.53 -0.46,1.99 -1.99,1.99l-28.5 0c-3.3,0 -1.99,-10.33 -1.99,-16.58l-7.46 7.13c-2.07,1.86 -6.07,4.55 -8.65,5.93 -5.97,3.19 -12.55,5.01 -19.3,5.51z"/>
     <path class="fil1" d="M4183.46 2337.39c6.4,0 13.35,2.38 18.18,5.69 22.02,15.08 17.61,53.96 -4.05,63.48 -9.13,4.01 -19.13,4.39 -28.07,-0.19 -7.4,-3.78 -13.06,-10.88 -15.9,-18.57 -4.76,-12.92 -2.96,-28.81 6.17,-39.61 4.84,-5.72 13.39,-10.8 23.67,-10.8zm-6.06 100.13l-5.14 0c-7.35,-0.35 -14.66,-2.23 -21.52,-5.73 -2.58,-1.31 -6.8,-3.97 -8.86,-5.73 -1.56,-1.33 -2.2,-1.98 -3.89,-3.4 -1.44,-1.21 -1.86,-2.21 -3.09,-3.54 -13.2,-14.29 -15.74,-30.17 -15.74,-50.56 0,-8.4 2.5,-17.95 5.1,-24.07 12.93,-30.51 46.34,-43.63 75.32,-29.2 11.06,5.51 11.44,9.54 16.35,12.82l0 -16.58 31.81 0 0 124 -31.81 0 0 -17.24c-4.58,5.27 -9.29,9.98 -15.9,13.27 -7.18,3.57 -14.88,5.59 -22.63,5.96z"/>
     <path class="fil1" d="M3630.68 2435.52c34.47,0 31.98,2.35 31.84,-5.94l-0.02 -55.72c0,-12.58 -0.34,-18.96 5.01,-26.81 11.89,-17.46 49.34,-13.7 49.34,16.87l0 71.61 31.81 0 0 -72.28c0,-20.83 -7.96,-39.53 -24.52,-47.76 -14.52,-7.21 -32.94,-7.21 -47.52,-0.44 -5.65,2.62 -10.39,6.76 -14.13,11.06l0.04 -50.44c0.04,-2.81 0.66,-5.26 -2.03,-5.26l-29.83 0 0 165.11z"/>
     <path class="fil1" d="M3488.84 2359.93l0 1.99 -57.67 0c0.16,-7.13 4.21,-13.83 8.78,-18.41 16.3,-16.36 48.89,-5.61 48.89,16.42zm-24.81 77.58l-5.43 0c-8.44,-0.33 -16.8,-2.17 -24.69,-5.39 -6,-2.44 -13.86,-7.81 -18.16,-12.33l-7 -8.92c-7.44,-11.31 -10.06,-24.51 -10.06,-39.01 0,-52.35 50.33,-73.36 88.35,-57.23 7.27,3.08 13.03,7.14 18.19,12.3 11.39,11.4 18.65,30.48 16.29,51.12 -0.37,3.26 0.57,4.14 -1.66,4.97l-89.37 0.11c0.83,1.73 0.74,4.27 1.16,6.13 2.55,11.31 13.44,21.72 25.35,21.72 12.65,0 20.66,-1.02 27.84,-14.59l33.8 0c-3.9,16.73 -19.65,32.22 -35.37,37.56 -6.31,2.14 -12.79,3.3 -19.27,3.56z"/>
     <path class="fil1" d="M3773.85 2346.67c0,19.54 12.65,28.23 27.26,33.07l23.7 6.79c13.34,4.28 18.64,5.04 18.64,15.17 0,14.26 -38.66,16.04 -40.43,-5.3l-31.81 0c0,13.03 9.27,24.36 17.03,30.04 9.26,6.78 21.74,10.56 34.4,11.07l5.79 0c11.04,-0.44 21.85,-3.42 30.42,-9.14 19.46,-12.99 25.19,-48.95 -12.48,-61.4 -13.06,-4.31 -41.35,-8.88 -41.35,-18.98l0 -3.32c0,-10.52 21.43,-12.96 31.18,-5.99 4.08,2.92 5.29,6.35 6.6,11.96l29.83 0c0,-13.58 -7.25,-23.97 -14.77,-30.31 -16.57,-13.98 -49.46,-14.34 -68.63,-1.39 -7.44,5.02 -15.36,15.44 -15.36,27.73z"/>
     <path class="fil1" d="M4053.55 2303.57l0 7.96 -13.92 0 0 26.52 13.92 0 0 97.48 31.82 0 0 -97.48 19.88 0c1.53,0 1.99,-0.46 1.99,-1.99l0 -24.54 -21.87 0c0,-11.18 0.28,-20.22 12.18,-22.3 10.18,-1.78 8.37,7.07 8.37,-25.44 0,-1.09 -0.39,-1.99 -1.32,-1.99 -28.8,0 -51.04,10.28 -51.04,41.78z"/>
     <path class="fil1" d="M3549.16 2311.52l-14.58 0 0 26.52 14.58 0 0 62.33c0,22.06 15.02,35.15 37.78,35.15l21.21 0 0 -26.52c-11.57,0 -27.17,2.36 -27.17,-9.95l0 -61 27.17 0 0 -26.52 -27.17 0 0 -30.5 -31.81 0 0 30.5z"/>
     <path class="fil1" d="M4309.4 2330.09l0 -18.57 -31.15 0 0 124 31.15 0 0 -59.02c0,-18.42 5.15,-33.15 25.85,-33.15l11.93 0 0 -33.16c-13.46,0 -22.34,3.46 -31.32,12.43 -1.19,1.19 -2.27,2.11 -3.26,3.37 -1.32,1.69 -1.53,2.86 -3.2,4.09z"/>
     <path class="fil1" d="M4367.72 2313.51l0 122.01 31.81 0 0 -124 -29.83 0c-1.53,0 -1.99,0.46 -1.99,1.99z"/>
     <path class="fil1" d="M4364.41 2279.03c0,23.7 39.11,25.22 39.11,0 0,-17.76 -21.91,-23.96 -33.32,-13.44 -1.44,1.33 -2.99,3.71 -3.81,5.47 -0.65,1.39 -1.97,6.02 -1.97,7.97z"/>
    </g>
    <g style="clip-path:url(#id2)">
     <image x="4323.83" y="2074.32" width="480.06" height="363.19" xlink:href="memoi patnerss_Images\memoi patnerss_ImgID3.png"/>
    </g>
    <g>
     <path class="fil1" d="M5256.54 2064.66c17.78,0 32.19,14.41 32.19,32.19 0,0.85 -0.04,1.7 -0.1,2.53 1.43,1 4.07,2.67 9.11,6.37l126.74 72.26c5.65,1.59 2.55,0.37 6.72,2.87 0.43,0.26 1.24,2.13 1.55,1.6 0.31,-0.53 0.87,1.21 1.32,1.8l0.13 0c3.34,-2.04 7.27,-3.22 11.48,-3.22 4.11,0 7.97,1.13 11.26,3.09l1.35 -0.01c0.59,0.78 1.25,1.57 1.94,2.4 4.59,4.04 7.49,9.96 7.49,16.56 0,6.6 -2.9,12.52 -7.49,16.55l-2.56 172.13c10.4,5.33 17.52,16.16 17.52,28.66 0,17.77 -14.41,32.18 -32.18,32.18 -7.15,0 -13.76,-2.34 -19.11,-6.29 -1.72,0.68 -4.12,2 -8.08,4.27l-133.73 80.48c-0.22,13.93 -11.57,25.14 -25.55,25.14 -14.12,0 -25.56,-11.44 -25.56,-25.56 0,-0.84 0.04,-1.67 0.12,-2.48l-142.46 -82.2c-1.79,-0.28 -3.52,-0 -5.31,0.51 -3.36,1.84 -7.13,3.02 -11.14,3.38 -4.26,0.67 -9.36,0.35 -15.95,-2.67 -16.67,-7.65 -19.53,-29.43 -9.72,-43.54 4.96,-7.13 3.4,-3.81 10.8,-9.5l0.01 -170.65c-7.69,-3.38 -13.06,-11.05 -13.06,-19.99 0,-12.06 9.77,-21.82 21.82,-21.82 3.8,0 7.38,0.97 10.5,2.68l1.63 0.19c44.06,-24.52 107.11,-56.83 146.3,-84.7 -0.09,-1 -0.14,-2.02 -0.14,-3.04 0,-17.78 14.4,-32.19 32.19,-32.19zm95.5 166.94c12.19,0 22.07,9.88 22.07,22.07 0,4.75 -1.5,9.16 -4.06,12.76l69.89 121.36 1.72 -163c-10.26,-1.89 -18.03,-10.87 -18.03,-21.68 0,-2.44 0.4,-4.8 1.13,-6.99 -2.28,-2.47 -5.82,-5.21 -11.5,-8.37 -13.01,-7.24 -25.26,-14.13 -39.77,-22.45l-86.69 -45.93 60.83 112.68c1.43,-0.29 2.89,-0.44 4.4,-0.44zm0.91 44.11l-0.91 0.02c-3.59,0.07 -6.99,-0.87 -9.99,-2.39l-94.37 51.87 -1.15 0.91c0.39,1.65 0.6,3.37 0.6,5.13 0,1.32 -0.12,2.61 -0.34,3.87l169.57 67.25c2.15,-3.16 4.84,-5.92 7.96,-8.14l-71.37 -118.53zm-22.03 -15.63c-0.61,-2.03 -0.95,-4.19 -0.95,-6.42 0,-5.08 1.72,-9.76 4.61,-13.49 -2.97,-14.91 -50.78,-88.93 -61.97,-107.6l-11.09 -3.04c-9.87,59.73 -19.83,118.56 -28.65,179 0.19,0.84 0.33,1.59 0.42,2.24 1.85,0.74 3.57,1.73 5.13,2.92l92.5 -53.61zm-90.5 87.02c-3.97,3.85 -9.39,6.22 -15.36,6.22 -5.01,0 -9.63,-1.67 -13.33,-4.49 -6.39,-0.43 -8.94,2.32 -17.58,7.5 -8.27,4.95 -13.89,8.53 -22.8,12.66l-54.52 32.3c-4.05,2.43 -5.52,2.84 -10.13,5.62 -9.02,5.44 -6.44,2.18 -8.42,9.54l132.98 0.28 179.39 -0.93 -169.95 -68.69 -0.29 -0.02zm-36.96 -11.33c-0.3,-1.46 -0.46,-2.96 -0.46,-4.51 0,-9.62 6.16,-17.8 14.75,-20.82l22.66 -171.98c-4.57,14.19 -130.45,217.41 -150.73,253.25l-1.08 8.16 0.18 0.16 18.61 -8.18 54.72 -32.2 41.36 -23.87zm-116.98 -139.97c0.91,2.41 1.41,5.01 1.41,7.74 0,10.05 -6.78,18.5 -16.02,21.04 -0.5,3.3 -0.74,8.3 -0.66,16.22 0.15,15.38 0.04,30.7 0.03,46.08 -0.03,29.93 -0.1,59.89 0.01,89.81l0.05 15.2c8.04,-2.55 5.86,-3.95 9.88,-11.65l148.18 -262.23 -142.88 77.81zm170.06 309.31c7.81,0 14.8,3.5 19.49,9.02 1.26,-0.04 2.82,-0.21 4.77,-0.55l133.92 -77.79 -2.22 -5.11 -313.92 -0.27 -0.03 4.85 134.41 79.27c1.66,-0.2 3.1,-0.45 4.36,-0.72 4.69,-5.34 11.55,-8.7 19.22,-8.7zm186.47 -102.31c9.74,0 17.63,7.89 17.63,17.63 0,9.74 -7.89,17.63 -17.63,17.63 -9.74,0 -17.63,-7.89 -17.63,-17.63 0,-9.74 7.89,-17.63 17.63,-17.63zm-186.47 -325.8c10.96,0 19.83,8.88 19.83,19.83 0,10.96 -8.88,19.83 -19.83,19.83 -10.96,0 -19.84,-8.88 -19.84,-19.83 0,-10.96 8.88,-19.83 19.84,-19.83zm-186.93 328.46c8.76,0 15.86,7.1 15.86,15.86 0,8.76 -7.1,15.86 -15.86,15.86 -8.76,0 -15.86,-7.1 -15.86,-15.86 0,-8.76 7.1,-15.86 15.86,-15.86z"/>
     <g>
      <path class="fil1" d="M5726.83 2308.55l17.17 -1.79 -0.19 -12.8 0.62 -46.13c7.37,7.65 20.83,29.82 24.36,40.46 10.43,7.18 -2.59,6.22 16.08,8.12 6.02,-15.82 19.74,-34.74 28.77,-50.35l1.43 47.77 0.24 12.63 16.56 0.94 0.91 -96.78 -12.53 0.91c-12.67,7.93 -15.61,27.03 -24.78,33.47 -3.5,11.16 -9.44,19.47 -15.83,27.37 -2.72,-3.08 0.98,2.06 -3.81,-4.57 -1.65,-2.29 -2.7,-4.1 -4.3,-6.44 -5.67,-8.35 -4.87,-6.41 -8.02,-16.36l-20.31 -32.88 1.23 0.29 -17.28 -1.06 -0.34 97.18zm280.39 -82.52l29.88 0.26c0.02,14.26 0.51,28.95 0.21,43.22 -0.17,7.96 -0.06,20.84 -9.86,23.08 -13.01,2.98 -9.7,-1.62 -10.78,-2.27 -9.41,0.24 -6.99,-2.33 -14.53,-6.76 -4.09,6.99 -5.12,5.19 -8.36,13.28 21.5,17.02 49.14,16.2 58.16,-4.33 6.59,-14.99 3.05,-61.07 3.26,-80.32l-52.05 3.04c-0.29,18.58 -0.52,6.17 4.07,10.8zm-340.38 -15.38c1.32,16.93 3.57,60.63 -3.8,72.17 -9.69,15.17 -40.44,15.44 -42.6,-11.15 -5.72,-8.92 -2.92,-46.58 -3.32,-58.32l-15.74 -0.03c-3.51,44.16 -8.02,96.38 42.98,95.37 51.46,-1.02 40.71,-53.33 40.51,-97.14l-18.03 -0.91zm467.15 20.11c6.55,7.33 17.02,33.27 17.96,40.25l-34.21 -0.46 16.25 -39.79zm-29.7 73.78l7.26 -19.26 47.02 0.17 9.86 23.27c1.02,-0.2 8.28,-1.04 9,-1.3 9.2,-3.31 3.44,1.67 8.93,-5.57l-1.63 -0.92c-6.12,-13.28 -32.7,-78.55 -42.41,-89.37l-16.93 -0.15 -41.87 95.59c11.44,0.21 13.54,1.88 20.76,-2.48zm-195.07 -76.76c46.31,-15.25 61.21,53.85 20.1,64.02 -44.17,10.93 -60.26,-50.8 -20.1,-64.02zm-39.28 45.98c11.04,24.21 8.04,12.61 20.53,29.25 11.46,1.5 43.09,15.74 68.02,-9.06 14.88,-14.81 18.81,-45.17 2.46,-65.13 -30.6,-37.35 -102.5,-18.81 -91.01,44.94z"/>
      <path class="fil1" d="M5893.38 2364c7.3,5.74 6.87,9.7 0,15.66 -2.87,-4.43 -3.62,7.26 -3.24,-9.23 0.33,-14.11 -0.99,-0.1 3.24,-6.43zm-46.37 22.52l10.08 -2.73c-2.11,-6.52 3.21,-4.85 -9.03,-5.7l-2.19 0.19 -1.84 -10.67 13.62 -4.17 -2.17 -6.7 -21.16 0.56 0.11 50.48 22.28 0.33 1.27 -7.46 -12.39 -1.4c-0.77,-4.04 -1.78,-2.06 -0.96,-7.26 0.85,-5.37 0.84,-3.09 2.37,-5.47zm147.05 21.63c19.84,-1.32 -3.4,1.17 6.85,-0.57 0.64,-0.11 1.83,0.02 2.33,-0.91 0.43,-0.79 1.15,-0.84 1.73,-1.23 -2.27,-8.87 1.28,-4.2 -8.73,-6.33l-1.73 -0.26 -1.49 -12.47c17.01,0.19 8.59,1.86 11.6,-5.3 -4.48,-3.92 7.43,-3.56 -9.41,-3.28l-1.7 -10.61 2.95 -1.3c9.73,-2.88 6.11,2.68 8.71,-6.46 -7.8,-4.11 -12.19,-2.5 -23.17,-2.75l0.22 51.39 11.84 0.08zm-204.69 -6.98c3.43,9.75 -2.17,6.76 13.19,7.2l2.5 -8.33 9.17 -43.56c-18.5,1.87 -6.96,-4.26 -17.1,33.5l-5.99 -33.34 -10.52 1.01 8.75 43.52zm151.81 -23.66c0.31,-7.47 -1.97,-12.48 4.58,-12.57 3.98,3.98 4.65,4.95 13.1,5.37 -1.53,-17.83 -6.25,-14.91 -24.47,-13.72l-3.15 3.93 0.44 23.43 8.16 2.54 9.32 0.36c0.37,3.28 1.3,4.4 0.49,7.62 -1.44,5.68 -0.31,2.12 -3.13,5.67 -10.19,-4.02 -3.04,-6.14 -14.4,-6.98 -4.61,23.57 36.54,29.13 25.33,-14.66l-16.26 -0.98zm-36.98 30.68c7.13,-7.81 3.04,-15.69 3.17,-26.91 0.1,-8.28 2.31,-13.66 -2.24,-23.54l-25.96 -1.03c-0.22,9.97 -0.03,19.89 -0.2,29.85 -0.22,12.87 -2.05,21.91 6.29,21.56 8.05,-0.35 3.08,-11.28 8.12,-20.54 4.53,7.18 2.26,10.09 3.87,14.76 2.29,6.62 -4.74,3.33 6.96,5.86z"/>
     </g>
    </g>
    <g>
     <path class="fil1" d="M1888.29 2259.7l0 12.27c0.77,1.98 3.89,40.03 18.69,78.49 9.41,24.46 20.62,43.79 33.97,62.44 18.49,25.82 17.53,20.25 34.13,38.75 7.09,7.9 31.39,25.3 40.58,31.24 8.5,5.49 24.68,17.24 31.89,13.48 43.46,-22.66 78.8,-54.32 103.23,-90.78 22.91,-34.2 47.92,-93.02 47.28,-145.61l-133.18 -54.35 0.02 31.66c47.88,8.49 89.92,56.63 83.84,114.97 -5.41,51.89 -49.28,94.78 -105.1,95.06 -55.88,0.28 -100.17,-42.56 -105.96,-94.22 -6.18,-55.15 33.93,-108.19 83.52,-115.78l-0.44 -31.73 -132.46 54.11z"/>
     <path class="fil1" d="M2064.76 2272.92c0.3,10.27 1.13,100.17 -0.92,107.77 -5.48,20.38 -36.33,21.13 -41.98,-0.3 -1.59,-6.04 -0.56,-96.49 -0.74,-108.06 -5.99,-0.13 -18.19,7.74 -22.59,10.98 -20.24,14.87 -33.01,42.6 -28.15,70.15 14.28,80.87 128.34,81.96 144.26,0.91 8.67,-44.11 -30.09,-81.54 -49.87,-81.46z"/>
     <path class="fil1" d="M2064.76 2272.92c19.78,-0.08 58.54,37.35 49.87,81.46 -15.92,81.05 -129.98,79.96 -144.26,-0.91 -4.86,-27.55 7.91,-55.28 28.15,-70.15 4.41,-3.24 16.6,-11.11 22.59,-10.98l0.04 -22.11c-18.61,1.17 -41.69,19.2 -53.6,34.25 -46.08,58.21 -6.09,150.4 73.94,151.51 89.83,1.24 132.94,-115.39 54.8,-172 -6.58,-4.77 -22.48,-12.94 -31.23,-13.63l-0.31 22.57z"/>
     <path class="fil1" d="M2502.74 2343.02c-1.94,2.24 -1.94,14.68 0,16.89 1.13,1.35 -2.29,1.96 9.11,1.79 19.5,-0.29 68.72,1.06 80.31,-0.27 13.85,-1.58 20.07,-10.24 20.46,-24.38 1.26,-46.34 -18.72,-35.8 -77.23,-36.48 -9.74,-0.11 -12.05,-2.52 -11.23,-12.92 0.75,-9.54 5.48,-8.51 14.49,-8.49 13.2,0.02 63.18,1.13 68.99,-0.61 2.02,-4.04 2.09,-15.06 -0.04,-19.14 -5.18,-1.57 -82.94,-1.42 -89.47,0.23 -13.87,3.5 -16.74,13.12 -16.74,29.17 0.01,37.29 22.87,30 61.91,30 5.1,0 17.91,-0.75 22,0.54 5.22,1.63 6.02,11.97 3.81,17.81 -2.13,5.63 -11.13,4.12 -18.31,4.11l-63.31 -0.09c-5.22,0.43 -2.76,-0.67 -4.77,1.85z"/>
     <path class="fil1" d="M3036.77 2342.65l-53.44 -1.38c-24.05,0.02 -31.77,2.8 -32.65,-22.45l80.91 0.02c4.06,-0.37 1.59,0.52 4.32,-1.13 0.9,-0.93 3.24,-15.52 -1.57,-16.67 -1.33,-0.32 -0.98,-0.35 -2.75,-0.52 -1.31,-0.12 -3.94,-0.02 -5.38,0l-75.57 0.02c1.68,-20.96 2.92,-21.39 32.69,-21.37l51.17 -0.31c0.26,-0.07 0.57,-0.23 0.8,-0.31 0.22,-0.08 0.56,-0.31 0.73,-0.38 2.34,-1.02 3.49,-17.49 -0.46,-19.09 -1.76,-0.71 -18.93,-0.31 -22.23,-0.31 -67.64,0 -84.93,-7.51 -84.92,51.44 0.02,59.03 17.48,51.44 83.85,51.45 27.02,0 25.62,2.33 25.56,-8.53 -0.02,-3.87 0.5,-8.08 -1.04,-10.49z"/>
     <path class="fil1" d="M2039.5 2154.72c13.67,-5.63 19.67,14.88 7.42,19.42 -12.12,4.48 -21.27,-13.72 -7.42,-19.42zm-6.6 26.95c4.85,0 11.56,0.41 16.11,0.09 4.16,-0.29 7.2,-1.43 11.86,-0.57l3.17 0.89c0.31,0.1 0.71,0.22 1.04,0.39 37.33,0.02 73.89,6.7 109.52,11.8 -6.14,-12.06 -32.36,-27.17 -50.88,-33.76 -22.36,-7.96 -45.87,-11.44 -71.08,-12.48l-19.72 -0.12c-28.26,4.61 -35.98,-0.12 -72.14,13.04 -15.6,5.67 -35.2,16.47 -46.68,28.33 -2.02,2.09 -3.26,4.19 -4.95,5.81 3.67,0.15 22.13,-4.38 27.78,-5.38 30.84,-5.47 64.79,-8.06 95.97,-8.02z"/>
     <path class="fil1" d="M2636.17 2361.67c21.21,0 15.67,7.24 16.13,-41.78l68.51 0c-0.04,7.92 -1.72,35.78 0.99,40.61 1.72,1.83 12.76,1.29 15.22,1.27 8.69,-0.05 6.57,-0.66 6.57,-15.13l-0.01 -82.5c0,-6.79 -0.63,-5.37 -12.04,-5.37 -14.07,0 -10.77,0.07 -10.74,15.01 0.02,8.93 -0.04,17.86 0,26.78l-68.5 -0.03c-0.06,-7.52 1.51,-39.4 -1.57,-41.27 -2.95,-1.79 -18.2,-1.35 -20.02,0.47 -2.92,2.91 -0.97,16.62 -0.97,21.55l-0.12 75.14c0.27,5.88 0.87,5.24 6.56,5.24z"/>
     <path class="fil1" d="M2360.48 2259.43c-2.04,10.94 -1.04,52.77 -1.03,66.86 0,39.3 30.89,35.38 64.57,35.38 68.03,-0 60.02,-7.63 60.02,-97.52 -0,-6.76 -1.56,-5.52 -8.53,-5.43 -4.49,0.06 -10.02,-0.45 -13.18,0.94 -3.26,6.58 -0.53,53.5 -1.13,65.45 -1.05,21.11 -21.11,16.13 -50.05,16.17 -33.06,0.05 -29.18,-5.99 -29.17,-37.48 0,-11.07 -0.09,-22.17 0.01,-33.23 0.06,-7.42 2.07,-11.42 -4.99,-11.89 -4.95,-0.32 -12.57,-0.54 -16.52,0.76z"/>
     <path class="fil1" d="M2234.34 2264.15l0 88.93c-0,9.99 -1.38,8.6 11.82,8.59 13.62,-0.01 10.73,6.74 10.72,-42.86 42.42,-0.06 29.91,-3.34 57.74,31.18 1.74,2.16 3.35,4.03 5.19,6.56 4.77,6.56 8.35,5.67 23.85,5.11l3.99 -0.29c0.28,-6.37 -14.67,-21.82 -18.63,-26.9 -5.81,-7.44 -15,-21.01 -22.15,-24.02 5.8,-9.37 36.89,-43.72 36.78,-51.58 -5.32,-0.22 -10.78,-0.13 -16.13,-0.17 -7.48,-0.05 -7.47,0.13 -10.96,5.11 -4.52,6.47 -9.11,12.22 -13.65,18.53 -15.97,22.23 -11.78,19.27 -46.03,19.27 -0.31,-46.83 3.72,-43.03 -9.63,-42.89 -8.24,0.08 -12.93,-2.52 -12.93,5.41z"/>
     <path class="fil1" d="M2797.93 2264.15c0,19.62 -3.22,16.09 21.46,16.09 9.36,0 18.72,0.08 28.07,-0.03l0.03 71.81c0,11.78 -1.6,9.67 19.05,9.66 5.76,-0.01 3.78,-4.24 3.76,-17.16l-0.06 -63.74 48.36 -0.62c1.63,-4.85 1.75,-16.24 0.02,-20.93 -9.88,-1.35 -92.45,-0.43 -109.94,-0.44 -6.9,0 -10.75,-1.95 -10.75,5.37z"/>
     <path class="fil1" d="M2065.07 2182.46c-0.33,-0.17 -0.73,-0.29 -1.04,-0.39l-3.17 -0.89c-4.66,-0.86 -7.7,0.28 -11.86,0.57 -4.56,0.32 -11.26,-0.09 -16.11,-0.09 0.19,22.76 -1.85,195.76 1.02,201.41 4.28,3.48 12.51,2.41 17.66,1.3 3.42,-9.9 1.4,-176.52 1.17,-202.32l12.33 0.41z"/>
     <path class="fil1" d="M2763.6 2360.66c2.94,1.62 8.56,1.02 13,1.08 8.17,0.1 8.54,1.24 8.54,-6.52l0 -91.07c0,-7.45 -2.98,-5.44 -10.73,-5.4 -15.66,0.07 -11.8,-4.57 -11.8,37.55 0,10.46 -1.83,59.15 0.99,64.37z"/>
     <path class="fil1" d="M2997.99 2414.1l-0.09 -9.61c15.16,0.07 30.2,-2.9 28.22,6.22 -1.36,6.23 -21.66,3.44 -28.12,3.39zm-0.04 -24.57c5.49,-0.03 10.98,0.02 16.47,-0.04 4.9,-0.05 11.56,-1.42 11.67,4.32 0.13,6.81 -15.24,4.18 -28.2,4.31l0.06 -8.59zm33.22 10.5c3.81,-2.9 8.58,-17.78 -8.13,-18.11 -11.05,-0.22 -22.42,0.04 -33.77,0.05l0.3 39.61c10.83,0.22 24.99,0.74 35.59,0.07 12.22,-0.78 11.54,-12.33 6.01,-21.63z"/>
     <path class="fil1" d="M2699.22 2389.62c12.1,-0.43 24.17,-2.72 26.49,3.63 4.78,13.03 -16.87,9.2 -26.69,8.97l0.2 -12.61zm27.59 18.74c5.6,-2.72 7.59,-4.03 7.93,-11.37 0.32,-6.91 -0.79,-11.55 -5.53,-13.73 -5.37,-2.46 -30.63,-1.48 -38.8,-1.15l0.22 39.58 8.22 -0.61 0.81 -10.95c0.04,-0.5 0.16,-0.63 0.28,-1.22l17.64 0.04c9.31,15.47 10.07,12.9 18.18,12.48 -0.89,-3.81 -6.36,-8.99 -8.94,-13.07z"/>
     <path class="fil1" d="M2468.15 2421.39c6.33,0.52 29.49,1.01 35.05,0.08 10.12,-1.69 10.01,-19.19 2.51,-22.48 -10.18,-4.48 -31.12,4.63 -29.26,-6.1 0.91,-5.24 9.27,-3.39 15.07,-3.37 5.76,0.02 11.51,0.05 17.47,-0.15l-0.13 -7.37 -6.63 -0.02c-18.97,-0.03 -33.08,-3.33 -34.37,8.65 -0.47,4.41 0.25,9.26 2.38,11.61 5.76,6.34 36.3,-4.31 31.54,9.36 -1.3,3.74 -6.39,2.7 -11.32,2.63l-22.48 0.21 0.17 6.95z"/>
     <path class="fil1" d="M2373.55 2391.35c7.46,-4 22.41,-1.61 32.61,-1.98l-0.22 -7.36c-33.37,-0.14 -41.87,-4.42 -41.84,20.37 0.02,11.28 0.8,17.8 11.78,19.07 5.31,0.62 25.76,0.77 30.37,-0.41 0.46,-5.69 1.41,-6.67 -4.57,-7 -19.27,-1.04 -29.38,5.44 -28.96,-9.48l33.11 -0.17 0.12 -6.36 -33.44 -0.14 1.06 -6.54z"/>
     <path class="fil1" d="M2303.63 2389.54c7.17,-0.04 20.57,-0.8 26.05,1.13 1.37,4.5 1.37,6.08 -0.04,10.56 -5.86,2.03 -18.67,1.14 -26.07,1.11l0.07 -12.8zm-0 20.32c6.56,0.06 21.25,0.79 26.94,-0.22 8.49,-1.5 9.67,-8.91 8.65,-17.86 -1.59,-13.77 -22.43,-9.8 -44.26,-9.8l0.12 39.81 8.45 -0.67 0.1 -11.26z"/>
     <path class="fil1" d="M2933.56 2382.57c-0.43,6.13 -0.76,25.39 0.5,30.48 2.48,9.95 12.55,8.62 23.55,8.62 21.35,0 27.06,1.56 23.76,-39.79l-8.37 0.57c-0.39,8.39 0.87,20.27 -0.92,27.98 -3.55,2.8 -21.68,5.38 -26.79,1.4 -2.72,-1.57 -2.74,-0.46 -3.24,-5.38l-0.13 -24.59 -8.36 0.7z"/>
     <path class="fil1" d="M2831.19 2390.96l9.3 15.33 -18.83 0.27c1.53,-4.09 6.13,-13.29 9.52,-15.59zm-13.69 22.28l26.83 -0.02 4.16 8.32 9.13 -0.25c-0.85,-3.7 -8.92,-17.1 -11.22,-21.29 -6.46,-11.79 -7.49,-17.9 -15.24,-18.1 -7.48,-0.19 -10.09,7.06 -15.54,17.75 -2.83,5.53 -10.28,16.91 -11.28,21.98l8.94 0.06 4.2 -8.44z"/>
     <path class="fil1" d="M2427.36 2406.43c1.53,-3.96 6.13,-13.17 9.91,-15.69l8.48 15.89 -18.39 -0.2zm-4.17 6.81l26.83 -0.02 4.17 8.4 9.1 -0.37c-1.08,-4.01 -8.74,-16.74 -11.21,-21.25 -6.46,-11.8 -7.47,-17.9 -15.24,-18.1 -6.59,-0.17 -7.35,2.86 -9.78,7.43 -3.76,7.06 -15.91,27.25 -17.02,32.3l8.93 -0.06 4.22 -8.34z"/>
     <path class="fil1" d="M2255.02 2400.22c-0,-10.75 2.06,-9.71 12.54,-9.64 6.65,0.04 14.69,0.42 21.37,-0.26l-0.17 -8.06c-6.8,-0.73 -22.93,-0.8 -29.76,-0.15 -10.37,0.99 -12.7,6.39 -12.71,17.04 -0.01,12.1 -1.07,21.52 13.75,22.46 7.56,0.48 21.31,0.49 28.93,-0.19l-0.18 -8.22c-14.1,-0.23 -17.4,0.44 -32.37,-1.01 -1.84,-5.03 -1.4,-6.02 -1.4,-11.97z"/>
     <path class="fil1" d="M2601.04 2406.41c1.19,-3.55 6.28,-13.46 9.85,-15.65l8.48 15.89 -18.34 -0.24zm-8.47 15.31c4.72,-10.49 2.82,-8.94 31.06,-8.51 4.22,6.98 1.66,9.48 13.36,8.12 -0.76,-3.46 -8.98,-17.05 -11.34,-21.29 -2.1,-3.78 -3.97,-7.29 -6.06,-11.1 -5.63,-10.25 -13.61,-9.89 -18.95,0.4 -3.84,7.38 -16.08,27.19 -16.89,32.17l8.82 0.21z"/>
     <polygon class="fil1" points="2890.78,2405.62 2917.32,2405.61 2917.53,2421.35 2925.96,2421.67 2925.86,2381.84 2917.43,2382.63 2917.33,2398.08 2890.76,2398.08 2890.59,2382.28 2882.14,2382 2882.25,2421.78 2890.69,2421.08 2890.76,2409.87 "/>
     <path class="fil1" d="M2766.89 2410.75c-1.21,-3.44 -0.99,-8.94 -0.84,-12.73 0.22,-5.45 0.91,-6.88 6.19,-7.39 8.63,-0.83 18.72,0.71 27.78,-0.39l-0.24 -7.91c-5.07,-0.71 -26.76,-0.8 -31.62,0.04 -10.43,1.83 -10.91,8.85 -10.82,20 0.09,11.19 0.72,17.73 11.76,19.07 5.42,0.65 25.37,0.62 30.82,-0.19l-0.18 -7.79c-9.33,-1.44 -26.61,3.12 -32.84,-2.72z"/>
     <path class="fil1" d="M2650.67 2398.65c-0.7,-9.4 2.58,-9.18 11.17,-9.15 7.21,0.03 14.47,0.22 21.83,-0.03l-0.29 -7.42c-36.81,-0.84 -45.82,-6.07 -41.48,39.41l8.36 -0.02 0.31 -15.76 32.73 -0.25 -0.12 -6.27 -32.51 -0.52z"/>
     <path class="fil1" d="M2543.12 2421.45l0.24 -30.71 18.81 -0.44 -0.24 -8.05c-6.26,-0.8 -41.28,-1.03 -46.44,0.35l0.1 7.85 18.84 0.33 0.15 30.76 8.54 -0.09z"/>
     <path class="fil1" d="M2032.91 2147.89l19.72 0.12c0.28,-7.51 1.98,-18.57 -2.4,-24.22l-14.84 0c-3.88,5.82 -2.5,15.07 -2.48,24.1z"/>
     <path class="fil1" d="M2039.5 2154.72c-13.85,5.7 -4.7,23.91 7.42,19.42 12.25,-4.54 6.25,-25.05 -7.42,-19.42z"/>
     <polygon class="fil1" points="2229.68,2421.79 2238.22,2421.13 2238.11,2382.25 2229.59,2381.96 "/>
     <polygon class="fil1" points="2742.01,2421.74 2750.42,2421.05 2750.27,2382.28 2741.81,2382.03 "/>
    </g>
   </g>
  </g>
 </g>
</svg>
